<?xml version="1.0" encoding="UTF-8" standalone="no"?>
<!DOCTYPE svg PUBLIC "-//W3C//DTD SVG 1.1//EN"
 "http://www.w3.org/Graphics/SVG/1.1/DTD/svg11.dtd">
<!-- Generated by graphviz version 2.40.1 (20161225.0304)
 -->
<!-- Title: %3 Pages: 1 -->
<svg width="523pt" height="560pt"
 viewBox="0.00 0.00 522.50 560.00" xmlns="http://www.w3.org/2000/svg" xmlns:xlink="http://www.w3.org/1999/xlink">
<g id="graph0" class="graph" transform="scale(1 1) rotate(0) translate(4 556)">
<title>%3</title>
<polygon fill="#ffffff" stroke="transparent" points="-4,4 -4,-556 518.5,-556 518.5,4 -4,4"/>
<g id="clust1" class="cluster">
<title>cluster_main_menu</title>
<polygon fill="none" stroke="#0000ff" points="82,-184 82,-475 177,-475 177,-184 82,-184"/>
<text text-anchor="middle" x="129.5" y="-459.8" font-family="Times,serif" font-size="14.00" fill="#000000">Main menu</text>
</g>
<g id="clust2" class="cluster">
<title>cluster_destination_menu</title>
<polygon fill="none" stroke="#0000ff" points="197,-253 197,-544 338,-544 338,-253 197,-253"/>
<text text-anchor="middle" x="267.5" y="-528.8" font-family="Times,serif" font-size="14.00" fill="#000000">Destination menu</text>
</g>
<g id="clust3" class="cluster">
<title>cluster_settings_menu</title>
<polygon fill="none" stroke="#0000ff" points="217.5,-8 217.5,-245 317.5,-245 317.5,-8 217.5,-8"/>
<text text-anchor="middle" x="267.5" y="-229.8" font-family="Times,serif" font-size="14.00" fill="#000000">Settings menu</text>
</g>
<g id="clust4" class="cluster">
<title>cluster_recent_destinations_menu</title>
<polygon fill="none" stroke="#0000ff" points="357.5,-157 357.5,-286 514.5,-286 514.5,-157 357.5,-157"/>
<text text-anchor="middle" x="436" y="-270.8" font-family="Times,serif" font-size="14.00" fill="#000000">Recent destinations menu</text>
</g>
<g id="clust5" class="cluster">
<title>cluster_bookmarks_menu</title>
<polygon fill="none" stroke="#0000ff" points="372,-294 372,-423 499,-423 499,-294 372,-294"/>
<text text-anchor="middle" x="435.5" y="-407.8" font-family="Times,serif" font-size="14.00" fill="#000000">Bookmarks menu</text>
</g>
<!-- map -->
<g id="node1" class="node">
<title>map</title>
<polygon fill="none" stroke="#000000" points="54,-444 0,-444 0,-408 54,-408 54,-444"/>
<text text-anchor="middle" x="27" y="-422.3" font-family="Times,serif" font-size="14.00" fill="#000000">map</text>
</g>
<!-- Destination -->
<g id="node2" class="node">
<title>Destination</title>
<g id="a_node2"><a xlink:href="https://github.com/navit-gps/navit/blob/trunk/navit/gui/qt5_qml/skins/modern/destination.qml" xlink:title="Destination">
<polygon fill="none" stroke="#000000" points="169,-444 90,-444 90,-408 169,-408 169,-444"/>
<text text-anchor="middle" x="129.5" y="-422.3" font-family="Times,serif" font-size="14.00" fill="#000000">Destination</text>
</a>
</g>
</g>
<!-- map&#45;&gt;Destination -->
<g id="edge1" class="edge">
<title>map&#45;&gt;Destination</title>
<path fill="none" stroke="#000000" d="M54.199,-426C62.0426,-426 70.8582,-426 79.6204,-426"/>
<polygon fill="#000000" stroke="#000000" points="72.0001,-429.5004 82,-426 71.9999,-422.5004 72.0001,-429.5004"/>
</g>
<!-- Address -->
<g id="node7" class="node">
<title>Address</title>
<polygon fill="none" stroke="#000000" points="298,-513 237,-513 237,-477 298,-477 298,-513"/>
<text text-anchor="middle" x="267.5" y="-491.3" font-family="Times,serif" font-size="14.00" fill="#000000">Address</text>
</g>
<!-- Destination&#45;&gt;Address -->
<g id="edge2" class="edge">
<title>Destination&#45;&gt;Address</title>
<path fill="none" stroke="#000000" d="M156.0812,-444.1778C165.6788,-450.3998 176.9109,-457.3136 188.0842,-463.3633"/>
<polygon fill="#000000" stroke="#000000" points="186.5131,-466.4912 197,-468 189.7429,-460.2809 186.5131,-466.4912"/>
</g>
<!-- Around me -->
<g id="node3" class="node">
<title>Around me</title>
<polygon fill="none" stroke="#000000" points="169,-390 90,-390 90,-354 169,-354 169,-390"/>
<text text-anchor="middle" x="129.5" y="-368.3" font-family="Times,serif" font-size="14.00" fill="#000000">Around me</text>
</g>
<!-- Route -->
<g id="node4" class="node">
<title>Route</title>
<polygon fill="none" stroke="#000000" points="156.5,-336 102.5,-336 102.5,-300 156.5,-300 156.5,-336"/>
<text text-anchor="middle" x="129.5" y="-314.3" font-family="Times,serif" font-size="14.00" fill="#000000">Route</text>
</g>
<!-- Settings -->
<g id="node5" class="node">
<title>Settings</title>
<polygon fill="none" stroke="#000000" points="159.5,-282 99.5,-282 99.5,-246 159.5,-246 159.5,-282"/>
<text text-anchor="middle" x="129.5" y="-260.3" font-family="Times,serif" font-size="14.00" fill="#000000">Settings</text>
</g>
<!-- Vehicle -->
<g id="node8" class="node">
<title>Vehicle</title>
<polygon fill="none" stroke="#000000" points="297,-214 238,-214 238,-178 297,-178 297,-214"/>
<text text-anchor="middle" x="267.5" y="-192.3" font-family="Times,serif" font-size="14.00" fill="#000000">Vehicle</text>
</g>
<!-- Settings&#45;&gt;Vehicle -->
<g id="edge3" class="edge">
<title>Settings&#45;&gt;Vehicle</title>
<path fill="none" stroke="#000000" d="M159.7847,-249.0771C174.0472,-242.0492 191.5727,-233.4134 208.3118,-225.1652"/>
<polygon fill="#000000" stroke="#000000" points="210.0816,-228.195 217.5047,-220.6354 206.9875,-221.9159 210.0816,-228.195"/>
</g>
<!-- Quit -->
<g id="node6" class="node">
<title>Quit</title>
<polygon fill="none" stroke="#000000" points="129.5,-228 91.6282,-210 129.5,-192 167.3718,-210 129.5,-228"/>
<text text-anchor="middle" x="129.5" y="-206.3" font-family="Times,serif" font-size="14.00" fill="#000000">Quit</text>
</g>
<!-- Online Search -->
<g id="node9" class="node">
<title>Online Search</title>
<polygon fill="none" stroke="#000000" points="314.5,-459 220.5,-459 220.5,-423 314.5,-423 314.5,-459"/>
<text text-anchor="middle" x="267.5" y="-437.3" font-family="Times,serif" font-size="14.00" fill="#000000">Online Search</text>
</g>
<!-- POIs -->
<g id="node10" class="node">
<title>POIs</title>
<polygon fill="none" stroke="#000000" points="294.5,-405 240.5,-405 240.5,-369 294.5,-369 294.5,-405"/>
<text text-anchor="middle" x="267.5" y="-383.3" font-family="Times,serif" font-size="14.00" fill="#000000">POIs</text>
</g>
<!-- Bookmarks -->
<g id="node11" class="node">
<title>Bookmarks</title>
<polygon fill="none" stroke="#000000" points="307.5,-351 227.5,-351 227.5,-315 307.5,-315 307.5,-351"/>
<text text-anchor="middle" x="267.5" y="-329.3" font-family="Times,serif" font-size="14.00" fill="#000000">Bookmarks</text>
</g>
<!-- Select Bookmark -->
<g id="node14" class="node">
<title>Select Bookmark</title>
<polygon fill="none" stroke="#000000" points="491,-392 380,-392 380,-356 491,-356 491,-392"/>
<text text-anchor="middle" x="435.5" y="-370.3" font-family="Times,serif" font-size="14.00" fill="#000000">Select Bookmark</text>
</g>
<!-- Bookmarks&#45;&gt;Select Bookmark -->
<g id="edge5" class="edge">
<title>Bookmarks&#45;&gt;Select Bookmark</title>
<path fill="none" stroke="#000000" d="M307.7402,-342.8205C326.3441,-347.3608 348.9211,-352.8706 369.8902,-357.9881"/>
<polygon fill="#000000" stroke="#000000" points="361.7292,-356.7836 372,-359.3845 365.5929,-350.9464 361.7292,-356.7836"/>
</g>
<!-- Recent Destinations -->
<g id="node12" class="node">
<title>Recent Destinations</title>
<polygon fill="none" stroke="#000000" points="330,-297 205,-297 205,-261 330,-261 330,-297"/>
<text text-anchor="middle" x="267.5" y="-275.3" font-family="Times,serif" font-size="14.00" fill="#000000">Recent Destinations</text>
</g>
<!-- Select -->
<g id="node13" class="node">
<title>Select</title>
<polygon fill="none" stroke="#000000" points="462.5,-255 408.5,-255 408.5,-219 462.5,-219 462.5,-255"/>
<text text-anchor="middle" x="435.5" y="-233.3" font-family="Times,serif" font-size="14.00" fill="#000000">Select</text>
</g>
<!-- Recent Destinations&#45;&gt;Select -->
<g id="edge4" class="edge">
<title>Recent Destinations&#45;&gt;Select</title>
<path fill="none" stroke="#000000" d="M330.057,-263.3608C335.7898,-261.9276 341.6654,-260.4587 347.5669,-258.9833"/>
<polygon fill="#000000" stroke="#000000" points="348.6501,-262.3203 357.5027,-256.4993 346.9523,-255.5293 348.6501,-262.3203"/>
</g>
<!-- Map data -->
<g id="node15" class="node">
<title>Map data</title>
<polygon fill="none" stroke="#000000" points="301.5,-160 233.5,-160 233.5,-124 301.5,-124 301.5,-160"/>
<text text-anchor="middle" x="267.5" y="-138.3" font-family="Times,serif" font-size="14.00" fill="#000000">Map data</text>
</g>
<!-- Map Layout -->
<g id="node16" class="node">
<title>Map Layout</title>
<polygon fill="none" stroke="#000000" points="309.5,-106 225.5,-106 225.5,-70 309.5,-70 309.5,-106"/>
<text text-anchor="middle" x="267.5" y="-84.3" font-family="Times,serif" font-size="14.00" fill="#000000">Map Layout</text>
</g>
<!-- Routing -->
<g id="node17" class="node">
<title>Routing</title>
<polygon fill="none" stroke="#000000" points="297.5,-52 237.5,-52 237.5,-16 297.5,-16 297.5,-52"/>
<text text-anchor="middle" x="267.5" y="-30.3" font-family="Times,serif" font-size="14.00" fill="#000000">Routing</text>
</g>
<!-- Clear -->
<g id="node18" class="node">
<title>Clear</title>
<polygon fill="none" stroke="#000000" points="462.5,-201 408.5,-201 408.5,-165 462.5,-165 462.5,-201"/>
<text text-anchor="middle" x="435.5" y="-179.3" font-family="Times,serif" font-size="14.00" fill="#000000">Clear</text>
</g>
<!-- Delete -->
<g id="node19" class="node">
<title>Delete</title>
<polygon fill="none" stroke="#000000" points="462.5,-338 408.5,-338 408.5,-302 462.5,-302 462.5,-338"/>
<text text-anchor="middle" x="435.5" y="-316.3" font-family="Times,serif" font-size="14.00" fill="#000000">Delete</text>
</g>
</g>
</svg>
